<mxfile host="65bd71144e">
    <diagram id="Zz2XIHt4Dc9gKmGfjdzb" name="Page-1">
        <mxGraphModel dx="963" dy="1088" grid="1" gridSize="10" guides="1" tooltips="1" connect="1" arrows="1" fold="1" page="0" pageScale="1" pageWidth="850" pageHeight="1100" math="0" shadow="0">
            <root>
                <mxCell id="0"/>
                <mxCell id="1" parent="0"/>
                <mxCell id="73" style="edgeStyle=orthogonalEdgeStyle;html=1;exitX=0.305;exitY=0.954;exitDx=0;exitDy=0;exitPerimeter=0;" parent="1" source="3" target="68" edge="1">
                    <mxGeometry relative="1" as="geometry">
                        <Array as="points">
                            <mxPoint x="400" y="270"/>
                            <mxPoint x="330" y="270"/>
                        </Array>
                    </mxGeometry>
                </mxCell>
                <mxCell id="78" style="edgeStyle=orthogonalEdgeStyle;html=1;exitX=0.5;exitY=1;exitDx=0;exitDy=0;" parent="1" source="3" target="66" edge="1">
                    <mxGeometry relative="1" as="geometry">
                        <Array as="points">
                            <mxPoint x="425" y="250"/>
                            <mxPoint x="530" y="250"/>
                        </Array>
                    </mxGeometry>
                </mxCell>
                <mxCell id="3" value="&lt;div&gt;2.0&lt;/div&gt;Transaksi" style="shape=ellipse;html=1;dashed=0;whiteSpace=wrap;perimeter=ellipsePerimeter;fontSize=12;" parent="1" vertex="1">
                    <mxGeometry x="360" y="93" width="130" height="70" as="geometry"/>
                </mxCell>
                <mxCell id="143" style="edgeStyle=orthogonalEdgeStyle;html=1;exitX=0.5;exitY=1;exitDx=0;exitDy=0;entryX=0.5;entryY=0;entryDx=0;entryDy=0;" edge="1" parent="1" source="5" target="87">
                    <mxGeometry relative="1" as="geometry">
                        <Array as="points">
                            <mxPoint x="380"/>
                            <mxPoint x="238"/>
                        </Array>
                    </mxGeometry>
                </mxCell>
                <mxCell id="5" value="kasir" style="html=1;dashed=0;whiteSpace=wrap;" parent="1" vertex="1">
                    <mxGeometry x="360" y="-70" width="100" height="50" as="geometry"/>
                </mxCell>
                <mxCell id="140" style="edgeStyle=orthogonalEdgeStyle;html=1;exitX=0.5;exitY=1;exitDx=0;exitDy=0;" edge="1" parent="1" source="51" target="87">
                    <mxGeometry relative="1" as="geometry">
                        <Array as="points">
                            <mxPoint x="195"/>
                            <mxPoint x="238"/>
                        </Array>
                    </mxGeometry>
                </mxCell>
                <mxCell id="51" value="owner" style="html=1;dashed=0;whiteSpace=wrap;" parent="1" vertex="1">
                    <mxGeometry x="145" y="-70" width="100" height="50" as="geometry"/>
                </mxCell>
                <mxCell id="149" style="edgeStyle=orthogonalEdgeStyle;html=1;exitX=1;exitY=0;exitDx=0;exitDy=0;entryX=0.5;entryY=1;entryDx=0;entryDy=0;" edge="1" parent="1" source="66" target="147">
                    <mxGeometry relative="1" as="geometry">
                        <Array as="points">
                            <mxPoint x="570" y="310"/>
                            <mxPoint x="570" y="194"/>
                            <mxPoint x="510" y="194"/>
                        </Array>
                    </mxGeometry>
                </mxCell>
                <mxCell id="66" value="D2&amp;nbsp; products" style="html=1;dashed=0;whiteSpace=wrap;shape=partialRectangle;right=0;left=0;" parent="1" vertex="1">
                    <mxGeometry x="480" y="310" width="100" height="30" as="geometry"/>
                </mxCell>
                <mxCell id="124" style="edgeStyle=orthogonalEdgeStyle;html=1;exitX=0;exitY=1;exitDx=0;exitDy=0;entryX=0;entryY=0;entryDx=0;entryDy=0;" parent="1" source="67" target="100" edge="1">
                    <mxGeometry relative="1" as="geometry">
                        <Array as="points">
                            <mxPoint x="200" y="349"/>
                            <mxPoint x="240" y="349"/>
                            <mxPoint x="240" y="450"/>
                        </Array>
                    </mxGeometry>
                </mxCell>
                <mxCell id="67" value="D3&amp;nbsp; transactions" style="html=1;dashed=0;whiteSpace=wrap;shape=partialRectangle;right=0;left=0;" parent="1" vertex="1">
                    <mxGeometry x="200" y="227" width="100" height="30" as="geometry"/>
                </mxCell>
                <mxCell id="68" value="D4&amp;nbsp; transaction_items" style="html=1;dashed=0;whiteSpace=wrap;shape=partialRectangle;right=0;left=0;" parent="1" vertex="1">
                    <mxGeometry x="280" y="310" width="120" height="30" as="geometry"/>
                </mxCell>
                <mxCell id="72" value="simpan penjualan" style="text;html=1;align=center;verticalAlign=middle;resizable=0;points=[];autosize=1;strokeColor=none;fillColor=none;" parent="1" vertex="1">
                    <mxGeometry x="230" y="167" width="120" height="30" as="geometry"/>
                </mxCell>
                <mxCell id="74" value="simpan product terjual" style="text;html=1;align=center;verticalAlign=middle;resizable=0;points=[];autosize=1;strokeColor=none;fillColor=none;" parent="1" vertex="1">
                    <mxGeometry x="280" y="273" width="140" height="30" as="geometry"/>
                </mxCell>
                <mxCell id="79" value="update stock" style="text;html=1;align=center;verticalAlign=middle;resizable=0;points=[];autosize=1;strokeColor=none;fillColor=none;" parent="1" vertex="1">
                    <mxGeometry x="420" y="243" width="90" height="30" as="geometry"/>
                </mxCell>
                <mxCell id="80" style="edgeStyle=orthogonalEdgeStyle;html=1;exitX=0.75;exitY=0;exitDx=0;exitDy=0;entryX=0.643;entryY=1.014;entryDx=0;entryDy=0;entryPerimeter=0;" parent="1" source="66" target="3" edge="1">
                    <mxGeometry relative="1" as="geometry">
                        <mxPoint x="444" y="170" as="targetPoint"/>
                        <Array as="points">
                            <mxPoint x="555" y="230"/>
                            <mxPoint x="444" y="230"/>
                        </Array>
                    </mxGeometry>
                </mxCell>
                <mxCell id="81" value="list produk" style="text;html=1;align=center;verticalAlign=middle;resizable=0;points=[];autosize=1;strokeColor=none;fillColor=none;" parent="1" vertex="1">
                    <mxGeometry x="440" y="208" width="80" height="30" as="geometry"/>
                </mxCell>
                <mxCell id="82" style="edgeStyle=orthogonalEdgeStyle;html=1;entryX=0.347;entryY=-0.044;entryDx=0;entryDy=0;entryPerimeter=0;" parent="1" source="3" target="66" edge="1">
                    <mxGeometry relative="1" as="geometry">
                        <Array as="points">
                            <mxPoint x="410" y="270"/>
                            <mxPoint x="515" y="270"/>
                        </Array>
                    </mxGeometry>
                </mxCell>
                <mxCell id="83" value="cari produk" style="text;html=1;align=center;verticalAlign=middle;resizable=0;points=[];autosize=1;strokeColor=none;fillColor=none;" parent="1" vertex="1">
                    <mxGeometry x="430" y="227" width="80" height="30" as="geometry"/>
                </mxCell>
                <mxCell id="84" style="edgeStyle=orthogonalEdgeStyle;html=1;exitX=0.5;exitY=0;exitDx=0;exitDy=0;entryX=0.222;entryY=0.906;entryDx=0;entryDy=0;entryPerimeter=0;" parent="1" source="67" target="3" edge="1">
                    <mxGeometry relative="1" as="geometry"/>
                </mxCell>
                <mxCell id="85" style="edgeStyle=orthogonalEdgeStyle;html=1;exitX=0;exitY=1;exitDx=0;exitDy=0;entryX=0.346;entryY=0.033;entryDx=0;entryDy=0;entryPerimeter=0;" parent="1" source="3" target="67" edge="1">
                    <mxGeometry relative="1" as="geometry">
                        <mxPoint x="234" y="220" as="targetPoint"/>
                        <Array as="points">
                            <mxPoint x="379" y="170"/>
                            <mxPoint x="235" y="170"/>
                        </Array>
                    </mxGeometry>
                </mxCell>
                <mxCell id="86" value="cetak struct" style="text;html=1;align=center;verticalAlign=middle;resizable=0;points=[];autosize=1;strokeColor=none;fillColor=none;" parent="1" vertex="1">
                    <mxGeometry x="250" y="187" width="80" height="30" as="geometry"/>
                </mxCell>
                <mxCell id="119" style="edgeStyle=orthogonalEdgeStyle;html=1;entryX=0;entryY=0.5;entryDx=0;entryDy=0;exitX=0;exitY=0.5;exitDx=0;exitDy=0;" parent="1" source="87" target="100" edge="1">
                    <mxGeometry relative="1" as="geometry">
                        <Array as="points">
                            <mxPoint x="180" y="60"/>
                            <mxPoint x="170" y="60"/>
                            <mxPoint x="170" y="475"/>
                        </Array>
                    </mxGeometry>
                </mxCell>
                <mxCell id="129" style="edgeStyle=orthogonalEdgeStyle;html=1;entryX=0.5;entryY=0;entryDx=0;entryDy=0;" parent="1" source="87" target="3" edge="1">
                    <mxGeometry relative="1" as="geometry"/>
                </mxCell>
                <mxCell id="137" style="edgeStyle=orthogonalEdgeStyle;html=1;exitX=0.5;exitY=1;exitDx=0;exitDy=0;" parent="1" source="87" target="95" edge="1">
                    <mxGeometry relative="1" as="geometry"/>
                </mxCell>
                <mxCell id="150" style="edgeStyle=orthogonalEdgeStyle;html=1;exitX=1;exitY=0;exitDx=0;exitDy=0;entryX=0;entryY=0.5;entryDx=0;entryDy=0;" edge="1" parent="1" source="87" target="147">
                    <mxGeometry relative="1" as="geometry">
                        <Array as="points">
                            <mxPoint x="340" y="42"/>
                            <mxPoint x="340" y="53"/>
                        </Array>
                    </mxGeometry>
                </mxCell>
                <mxCell id="87" value="&lt;div&gt;1.0&lt;/div&gt;authentikasi" style="shape=ellipse;html=1;dashed=0;whiteSpace=wrap;perimeter=ellipsePerimeter;" parent="1" vertex="1">
                    <mxGeometry x="180" y="33" width="115" height="60" as="geometry"/>
                </mxCell>
                <mxCell id="95" value="D1&amp;nbsp; users" style="html=1;dashed=0;whiteSpace=wrap;shape=partialRectangle;right=0;left=0;" parent="1" vertex="1">
                    <mxGeometry x="180" y="128" width="100" height="30" as="geometry"/>
                </mxCell>
                <mxCell id="156" style="edgeStyle=orthogonalEdgeStyle;html=1;exitX=0;exitY=1;exitDx=0;exitDy=0;entryX=0;entryY=0;entryDx=0;entryDy=0;" edge="1" parent="1" source="100" target="87">
                    <mxGeometry relative="1" as="geometry">
                        <Array as="points">
                            <mxPoint x="268" y="510"/>
                            <mxPoint x="140" y="510"/>
                            <mxPoint x="140" y="42"/>
                        </Array>
                    </mxGeometry>
                </mxCell>
                <mxCell id="100" value="&lt;div&gt;4.0&lt;/div&gt;laporan" style="shape=ellipse;html=1;dashed=0;whiteSpace=wrap;perimeter=ellipsePerimeter;" parent="1" vertex="1">
                    <mxGeometry x="250" y="440" width="120" height="70" as="geometry"/>
                </mxCell>
                <mxCell id="103" value="data transaksi" style="text;html=1;align=center;verticalAlign=middle;resizable=0;points=[];autosize=1;strokeColor=none;fillColor=none;" parent="1" vertex="1">
                    <mxGeometry x="162" y="320" width="100" height="30" as="geometry"/>
                </mxCell>
                <mxCell id="118" value="lihat laporan&amp;nbsp;&lt;div&gt;penjualan&lt;/div&gt;" style="text;html=1;align=center;verticalAlign=middle;resizable=0;points=[];autosize=1;strokeColor=none;fillColor=none;" parent="1" vertex="1">
                    <mxGeometry x="167" y="440" width="90" height="40" as="geometry"/>
                </mxCell>
                <mxCell id="122" style="edgeStyle=orthogonalEdgeStyle;html=1;exitX=0;exitY=1;exitDx=0;exitDy=0;entryX=1;entryY=0;entryDx=0;entryDy=0;" parent="1" source="66" target="100" edge="1">
                    <mxGeometry relative="1" as="geometry">
                        <Array as="points">
                            <mxPoint x="440" y="340"/>
                            <mxPoint x="440" y="370"/>
                            <mxPoint x="352" y="370"/>
                            <mxPoint x="352" y="439"/>
                        </Array>
                    </mxGeometry>
                </mxCell>
                <mxCell id="123" value="data produk" style="text;html=1;align=center;verticalAlign=middle;resizable=0;points=[];autosize=1;strokeColor=none;fillColor=none;" parent="1" vertex="1">
                    <mxGeometry x="340" y="344" width="90" height="30" as="geometry"/>
                </mxCell>
                <mxCell id="126" style="edgeStyle=orthogonalEdgeStyle;html=1;exitX=0.5;exitY=1;exitDx=0;exitDy=0;" parent="1" source="68" edge="1">
                    <mxGeometry relative="1" as="geometry">
                        <mxPoint x="271" y="447" as="targetPoint"/>
                    </mxGeometry>
                </mxCell>
                <mxCell id="127" value="item terjual" style="text;html=1;align=center;verticalAlign=middle;resizable=0;points=[];autosize=1;strokeColor=none;fillColor=none;" parent="1" vertex="1">
                    <mxGeometry x="250" y="368" width="80" height="30" as="geometry"/>
                </mxCell>
                <mxCell id="141" style="edgeStyle=orthogonalEdgeStyle;html=1;exitX=0.5;exitY=1;exitDx=0;exitDy=0;entryX=0.5;entryY=0;entryDx=0;entryDy=0;" edge="1" parent="1" source="128" target="87">
                    <mxGeometry relative="1" as="geometry">
                        <Array as="points">
                            <mxPoint x="270" y="-20"/>
                            <mxPoint x="270"/>
                            <mxPoint x="238"/>
                        </Array>
                    </mxGeometry>
                </mxCell>
                <mxCell id="128" value="manager" style="html=1;dashed=0;whiteSpace=wrap;" parent="1" vertex="1">
                    <mxGeometry x="250" y="-70" width="100" height="50" as="geometry"/>
                </mxCell>
                <mxCell id="130" value="transaksi" style="text;html=1;align=center;verticalAlign=middle;resizable=0;points=[];autosize=1;strokeColor=none;fillColor=none;" parent="1" vertex="1">
                    <mxGeometry x="315" y="58" width="70" height="30" as="geometry"/>
                </mxCell>
                <mxCell id="138" value="verifikasi" style="text;html=1;align=center;verticalAlign=middle;resizable=0;points=[];autosize=1;strokeColor=none;fillColor=none;" parent="1" vertex="1">
                    <mxGeometry x="230" y="98" width="70" height="30" as="geometry"/>
                </mxCell>
                <mxCell id="144" value="login" style="text;html=1;align=center;verticalAlign=middle;resizable=0;points=[];autosize=1;strokeColor=none;fillColor=none;" vertex="1" parent="1">
                    <mxGeometry x="232" y="-2" width="50" height="30" as="geometry"/>
                </mxCell>
                <mxCell id="146" style="edgeStyle=orthogonalEdgeStyle;html=1;exitX=0.5;exitY=1;exitDx=0;exitDy=0;entryX=0.5;entryY=0;entryDx=0;entryDy=0;" edge="1" parent="1" source="145" target="87">
                    <mxGeometry relative="1" as="geometry">
                        <Array as="points">
                            <mxPoint x="530"/>
                            <mxPoint x="238"/>
                        </Array>
                    </mxGeometry>
                </mxCell>
                <mxCell id="145" value="admin" style="html=1;dashed=0;whiteSpace=wrap;" vertex="1" parent="1">
                    <mxGeometry x="480" y="-70" width="100" height="50" as="geometry"/>
                </mxCell>
                <mxCell id="154" style="edgeStyle=orthogonalEdgeStyle;html=1;exitX=1;exitY=1;exitDx=0;exitDy=0;entryX=1;entryY=0;entryDx=0;entryDy=0;" edge="1" parent="1" source="147" target="66">
                    <mxGeometry relative="1" as="geometry">
                        <Array as="points">
                            <mxPoint x="530" y="71"/>
                            <mxPoint x="530" y="160"/>
                            <mxPoint x="580" y="160"/>
                        </Array>
                    </mxGeometry>
                </mxCell>
                <mxCell id="147" value="&lt;div&gt;3.0&lt;/div&gt;Manajemen&lt;div&gt;produk&lt;/div&gt;" style="shape=ellipse;html=1;dashed=0;whiteSpace=wrap;perimeter=ellipsePerimeter;" vertex="1" parent="1">
                    <mxGeometry x="460" y="28" width="100" height="50" as="geometry"/>
                </mxCell>
                <mxCell id="151" value="manage product" style="text;html=1;align=center;verticalAlign=middle;resizable=0;points=[];autosize=1;strokeColor=none;fillColor=none;" vertex="1" parent="1">
                    <mxGeometry x="340" y="28" width="110" height="30" as="geometry"/>
                </mxCell>
                <mxCell id="153" value="list product" style="text;html=1;align=center;verticalAlign=middle;resizable=0;points=[];autosize=1;strokeColor=none;fillColor=none;" vertex="1" parent="1">
                    <mxGeometry x="503" y="167" width="80" height="30" as="geometry"/>
                </mxCell>
                <mxCell id="155" value="pengelolaan" style="text;html=1;align=center;verticalAlign=middle;resizable=0;points=[];autosize=1;strokeColor=none;fillColor=none;" vertex="1" parent="1">
                    <mxGeometry x="526" y="132" width="90" height="30" as="geometry"/>
                </mxCell>
                <mxCell id="157" value="cetak laporan" style="text;html=1;align=center;verticalAlign=middle;resizable=0;points=[];autosize=1;strokeColor=none;fillColor=none;" vertex="1" parent="1">
                    <mxGeometry x="131" y="484" width="100" height="30" as="geometry"/>
                </mxCell>
            </root>
        </mxGraphModel>
    </diagram>
</mxfile>